<?xml version="1.0" encoding="UTF-8"?>
<svg xmlns="http://www.w3.org/2000/svg" width="17" height="17" viewBox="0 0 17 17" fill="none">
  <path d="M15.5429 2.29385H14.1007V2.88065C14.1007 3.52079 13.5665 4.00091 12.979 4.00091C12.338 4.00091 11.8573 3.46745 11.8573 2.88065V2.29385H9.61389V2.88065C9.61389 3.46745 9.13316 3.94756 8.54561 4.00091H8.4922H8.43878C7.85122 3.94756 7.3705 3.46745 7.3705 2.88065V2.29385H5.12711V2.88065C5.12711 3.52079 4.59297 4.00091 4.00541 4.00091C3.36444 4.00091 2.88372 3.46745 2.88372 2.88065V2.29385H1.44154C0.960812 2.29385 0.586914 2.66727 0.586914 3.14738V5.12115H8.43878H8.54561H16.3975V3.14738C16.3975 2.66727 16.0236 2.29385 15.5429 2.29385Z" fill="#025999"></path>
  <path d="M0 6.29477V15.3101C0 16.1103 0.640971 16.7505 1.44218 16.7505H5.12775C3.95264 15.0434 3.25826 11.2559 3.25826 10.1356C3.25826 7.84179 5.7153 6.34811 7.74504 7.41502C8.22577 7.68175 8.75991 7.68175 9.24063 7.41502C11.2704 6.34811 13.7274 7.84179 13.7274 10.1356C13.7274 11.2559 13.033 15.0434 11.8579 16.7505H15.5435C16.3447 16.7505 16.9857 16.1103 16.9857 15.3101V6.29477H0Z" fill="#025999"></path>
  <path d="M9.13361 8.16185C8.7063 8.37524 8.22557 8.37524 7.85167 8.16185C6.08901 7.25498 4.00586 8.53527 4.00586 10.5091C4.00586 11.736 5.02073 16.9105 6.62315 16.9105C7.21071 16.9105 7.69143 16.3237 8.17216 15.1501C8.27899 14.8834 8.65289 14.8834 8.75972 15.1501C9.24044 16.3237 9.77458 16.9105 10.3087 16.9105C11.9111 16.9105 12.926 11.7893 12.926 10.5091C12.9794 8.53527 10.8963 7.25498 9.13361 8.16185Z" fill="#025999"></path>
  <path d="M15.5435 1.70705H14.1013V1.12025C14.1013 0.480104 13.5672 0 12.9796 0C12.3386 0 11.8579 0.533449 11.8579 1.12025V1.70705H9.61453V1.12025C9.61453 0.533449 9.1338 0.0533454 8.54625 0H8.49284H8.43942C7.85187 0.0533454 7.37114 0.533449 7.37114 1.12025V1.70705H5.12775V1.12025C5.12775 0.480104 4.59361 0 4.00605 0C3.36509 0 2.88436 0.533449 2.88436 1.12025V1.70705H1.44218C0.640971 1.70705 0 2.3472 0 3.14738V5.44123H16.9857V3.14738C16.9857 2.3472 16.3447 1.70705 15.5435 1.70705ZM12.4455 1.12025C12.4455 0.800177 12.7126 0.533454 13.033 0.533454C13.3535 0.533454 13.6206 0.800177 13.6206 1.12025V2.82731C13.6206 3.14738 13.3535 3.4141 13.033 3.4141C12.7126 3.4141 12.4455 3.14738 12.4455 2.82731V1.12025ZM7.9587 1.12025C7.9587 0.800177 8.17236 0.5868 8.49284 0.533454C8.75991 0.533454 9.02698 0.800177 9.02698 1.12025V2.82731C9.02698 3.14738 8.81332 3.36076 8.49284 3.4141C8.22577 3.4141 7.9587 3.14738 7.9587 2.82731V1.12025ZM3.4185 1.12025C3.4185 0.800177 3.68557 0.533454 4.00605 0.533454C4.32654 0.533454 4.59361 0.800177 4.59361 1.12025V2.82731C4.59361 3.14738 4.32654 3.4141 4.00605 3.4141C3.68557 3.4141 3.4185 3.14738 3.4185 2.82731V1.12025ZM16.3981 5.12116H8.54625H8.43942H0.587558V3.14738C0.587558 2.66727 0.961456 2.29386 1.44218 2.29386H2.88436V2.88065C2.88436 3.5208 3.4185 4.00091 4.00605 4.00091C4.64702 4.00091 5.12775 3.46745 5.12775 2.88065V2.29386H7.37114V2.88065C7.37114 3.46745 7.85187 3.94756 8.43942 4.00091H8.49284H8.54625C9.1338 3.94756 9.61453 3.46745 9.61453 2.88065V2.29386H11.8579V2.88065C11.8579 3.5208 12.3921 4.00091 12.9796 4.00091C13.6206 4.00091 14.1013 3.46745 14.1013 2.88065V2.29386H15.5435C16.0242 2.29386 16.3981 2.66727 16.3981 3.14738V5.12116Z" fill="#025999"></path>
</svg>
